<?xml version="1.0" encoding="UTF-8"?>
<!DOCTYPE svg PUBLIC "-//W3C//DTD SVG 1.1//EN" "http://www.w3.org/Graphics/SVG/1.1/DTD/svg11.dtd">
<svg xmlns="http://www.w3.org/2000/svg" version="1.1" width="1366px" height="768px" style="shape-rendering:geometricPrecision; text-rendering:geometricPrecision; image-rendering:optimizeQuality; fill-rule:evenodd; clip-rule:evenodd" xmlns:xlink="http://www.w3.org/1999/xlink">
<g><path style="opacity:1" fill="#f4f4ee" d="M -0.5,-0.5 C 454.833,-0.5 910.167,-0.5 1365.5,-0.5C 1365.5,255.5 1365.5,511.5 1365.5,767.5C 1196.5,767.5 1027.5,767.5 858.5,767.5C 857.842,755.645 859.009,743.979 862,732.5C 870.444,694.615 879.777,656.949 890,619.5C 895.115,584.009 897.115,548.342 896,512.5C 889.178,481.678 871.345,459.844 842.5,447C 809.183,435.259 774.849,430.425 739.5,432.5C 739.826,423.983 739.493,415.65 738.5,407.5C 733.494,374.678 715.494,352.178 684.5,340C 668.236,334.467 651.569,330.8 634.5,329C 586.824,328.639 539.157,328.973 491.5,330C 474.29,329.103 457.29,326.769 440.5,323C 399.68,312.283 360.347,297.616 322.5,279C 286.165,257.168 250.165,234.834 214.5,212C 190.123,197.812 165.457,184.145 140.5,171C 94.1176,156.792 47.1176,154.625 -0.5,164.5C -0.5,109.5 -0.5,54.5 -0.5,-0.5 Z"/></g>
<g><path style="opacity:1" fill="#76bcb6" d="M 738.5,407.5 C 738.5,415.833 738.5,424.167 738.5,432.5C 712.142,433.001 685.809,434.001 659.5,435.5C 623.583,436.123 588.583,430.956 554.5,420C 517.02,408.843 481.02,394.177 446.5,376C 415.3,357.457 384.633,338.124 354.5,318C 327.493,301.828 300.159,286.161 272.5,271C 259.085,264.862 245.085,260.529 230.5,258C 204.058,252.398 177.391,251.065 150.5,254C 122.106,257.242 94.1057,262.575 66.5,270C 43.6946,278.1 21.3613,287.266 -0.5,297.5C -0.5,253.167 -0.5,208.833 -0.5,164.5C 47.1176,154.625 94.1176,156.792 140.5,171C 165.457,184.145 190.123,197.812 214.5,212C 250.165,234.834 286.165,257.168 322.5,279C 360.347,297.616 399.68,312.283 440.5,323C 457.29,326.769 474.29,329.103 491.5,330C 539.157,328.973 586.824,328.639 634.5,329C 651.569,330.8 668.236,334.467 684.5,340C 715.494,352.178 733.494,374.678 738.5,407.5 Z"/></g>
<g><path style="opacity:1" fill="#47a7a1" d="M 738.5,432.5 C 738.16,454.242 736.66,475.909 734,497.5C 722.402,540.557 712.069,583.89 703,627.5C 702.191,652.539 702.858,677.539 705,702.5C 709.61,724.158 714.11,745.825 718.5,767.5C 478.833,767.5 239.167,767.5 -0.5,767.5C -0.5,610.833 -0.5,454.167 -0.5,297.5C 21.3613,287.266 43.6946,278.1 66.5,270C 94.1057,262.575 122.106,257.242 150.5,254C 177.391,251.065 204.058,252.398 230.5,258C 245.085,260.529 259.085,264.862 272.5,271C 300.159,286.161 327.493,301.828 354.5,318C 384.633,338.124 415.3,357.457 446.5,376C 481.02,394.177 517.02,408.843 554.5,420C 588.583,430.956 623.583,436.123 659.5,435.5C 685.809,434.001 712.142,433.001 738.5,432.5 Z"/></g>
<g><path style="opacity:1" fill="#93c9c3" d="M 738.5,407.5 C 739.493,415.65 739.826,423.983 739.5,432.5C 774.849,430.425 809.183,435.259 842.5,447C 871.345,459.844 889.178,481.678 896,512.5C 897.115,548.342 895.115,584.009 890,619.5C 879.777,656.949 870.444,694.615 862,732.5C 859.009,743.979 857.842,755.645 858.5,767.5C 811.833,767.5 765.167,767.5 718.5,767.5C 714.11,745.825 709.61,724.158 705,702.5C 702.858,677.539 702.191,652.539 703,627.5C 712.069,583.89 722.402,540.557 734,497.5C 736.66,475.909 738.16,454.242 738.5,432.5C 738.5,424.167 738.5,415.833 738.5,407.5 Z"/></g>
</svg>
