<?xml version="1.0" encoding="UTF-8"?>
<!DOCTYPE svg PUBLIC "-//W3C//DTD SVG 1.1//EN" "http://www.w3.org/Graphics/SVG/1.1/DTD/svg11.dtd">
<svg xmlns="http://www.w3.org/2000/svg" version="1.1" width="1366px" height="768px" style="shape-rendering:geometricPrecision; text-rendering:geometricPrecision; image-rendering:optimizeQuality; fill-rule:evenodd; clip-rule:evenodd" xmlns:xlink="http://www.w3.org/1999/xlink">
<g><path style="opacity:1" fill="#92c9c2" d="M 438.5,-0.5 C 593.5,-0.5 748.5,-0.5 903.5,-0.5C 900.525,2.32294 897.192,4.65628 893.5,6.5C 888.744,7.74356 884.91,10.4102 882,14.5C 881.667,14.1667 881.333,13.8333 881,13.5C 879.982,16.7121 877.816,18.5454 874.5,19C 872.254,22.9148 869.088,25.7481 865,27.5C 864.517,28.448 864.351,29.448 864.5,30.5C 859.34,31.5895 855.34,34.4229 852.5,39C 852.833,39.3333 853.167,39.6667 853.5,40C 849.833,41.6667 847.167,44.3333 845.5,48C 844.175,47.8516 843.008,48.0183 842,48.5C 840.831,52.6654 838.498,55.9987 835,58.5C 834.517,59.448 834.351,60.448 834.5,61.5C 800.767,100.952 776.934,145.952 763,196.5C 751.138,236.947 741.638,277.947 734.5,319.5C 733.275,320.152 732.608,321.319 732.5,323C 730.516,331.916 729.183,340.916 728.5,350C 728.821,361.052 728.821,372.218 728.5,383.5C 730.632,385.395 730.966,387.562 729.5,390C 730.871,392.319 731.538,394.819 731.5,397.5C 730.833,397.5 730.167,397.5 729.5,397.5C 726.495,395.723 723.162,394.723 719.5,394.5C 716.603,393.871 713.936,392.871 711.5,391.5C 708.029,387.983 703.696,386.317 698.5,386.5C 696.948,383.888 694.614,382.555 691.5,382.5C 691.5,381.167 691.5,379.833 691.5,378.5C 689.167,379.167 686.833,379.833 684.5,380.5C 682.964,377.908 680.631,376.908 677.5,377.5C 663.57,371.868 650.237,365.202 637.5,357.5C 636.555,354.013 634.222,352.68 630.5,353.5C 629.972,352.279 629.305,351.113 628.5,350C 628.833,349.667 629.167,349.333 629.5,349C 627.97,346.803 626.136,345.97 624,346.5C 620.409,344.68 616.576,343.68 612.5,343.5C 612.092,342.357 611.425,341.357 610.5,340.5C 607.415,338.756 604.415,336.922 601.5,335C 598.469,332.985 595.136,331.819 591.5,331.5C 591.027,330.094 590.027,329.427 588.5,329.5C 587.508,329.672 586.842,329.338 586.5,328.5C 586.027,327.094 585.027,326.427 583.5,326.5C 579.975,325.241 576.975,323.241 574.5,320.5C 573.466,316.466 570.8,314.799 566.5,315.5C 564.926,310.789 561.593,308.455 556.5,308.5C 556.5,307.5 556.5,306.5 556.5,305.5C 552.873,305.379 550.54,303.545 549.5,300C 546.068,298.815 542.735,297.648 539.5,296.5C 538.235,292.562 535.568,290.562 531.5,290.5C 530.738,288.738 529.404,287.738 527.5,287.5C 526.5,287.167 525.833,286.5 525.5,285.5C 525.027,284.094 524.027,283.427 522.5,283.5C 521.5,283.167 520.833,282.5 520.5,281.5C 520.291,280.078 519.791,278.745 519,277.5C 517.001,275.747 514.835,274.413 512.5,273.5C 508.833,270.5 505.5,267.167 502.5,263.5C 501.202,258.869 498.202,255.869 493.5,254.5C 488.822,249.821 484.489,244.821 480.5,239.5C 480.556,235.227 478.556,232.893 474.5,232.5C 474.5,232.167 474.5,231.833 474.5,231.5C 474.611,230.883 474.944,230.383 475.5,230C 473.437,227.583 471.103,225.417 468.5,223.5C 468.167,221.5 467.833,219.5 467.5,217.5C 466.5,217.5 465.5,217.5 464.5,217.5C 463.671,213.337 461.338,210.337 457.5,208.5C 457.5,208.167 457.5,207.833 457.5,207.5C 457.978,204.722 456.978,202.722 454.5,201.5C 453.044,198.071 451.544,194.738 450,191.5C 449.329,190.748 448.496,190.414 447.5,190.5C 444.659,186.151 442.326,181.484 440.5,176.5C 440.034,174.799 440.034,173.299 440.5,172C 439.309,171.302 438.309,170.469 437.5,169.5C 437.663,167.143 437.497,164.81 437,162.5C 436.329,161.748 435.496,161.414 434.5,161.5C 434.664,158.813 434.497,156.146 434,153.5C 433.329,152.748 432.496,152.414 431.5,152.5C 431.119,147.123 430.453,141.79 429.5,136.5C 428.469,128.008 426.969,119.674 425,111.5C 424.5,102.173 424.334,92.8393 424.5,83.5C 425.998,70.5124 427.331,57.5124 428.5,44.5C 428.5,44.1667 428.5,43.8333 428.5,43.5C 429.751,41.6181 430.918,39.6181 432,37.5C 434.365,24.8432 436.532,12.1765 438.5,-0.5 Z"/></g>
<g><path style="opacity:1" fill="#59afa9" d="M 903.5,-0.5 C 1053.17,-0.5 1202.83,-0.5 1352.5,-0.5C 1356.44,1.96365 1360.78,3.63032 1365.5,4.5C 1365.5,258.833 1365.5,513.167 1365.5,767.5C 1339.5,767.5 1313.5,767.5 1287.5,767.5C 1269.98,751.332 1250.98,736.999 1230.5,724.5C 1219.86,719.182 1209.2,713.849 1198.5,708.5C 1194.23,704.867 1189.23,702.534 1183.5,701.5C 1182.2,699.633 1180.7,699.3 1179,700.5C 1177.24,700.056 1177.4,699.556 1179.5,699C 1178.22,698.316 1177.05,698.483 1176,699.5C 1175.1,698.299 1173.93,697.465 1172.5,697C 1161.78,693.957 1151.11,690.957 1140.5,688C 1138.56,687.257 1136.73,687.424 1135,688.5C 1132.07,687.597 1129.24,685.93 1126.5,683.5C 1101.83,644.152 1075.66,605.818 1048,568.5C 1045.05,564.901 1041.88,561.567 1038.5,558.5C 1036.55,554.255 1033.89,550.589 1030.5,547.5C 1029.3,543.737 1027.8,540.07 1026,536.5C 1025.67,537.167 1025.33,537.833 1025,538.5C 1021.19,534.027 1017.03,529.86 1012.5,526C 1013.73,524.817 1013.73,523.651 1012.5,522.5C 1010.78,521.066 1008.78,520.233 1006.5,520C 1003.18,515.385 999.514,511.052 995.5,507C 993.754,506.529 992.087,505.862 990.5,505C 986.603,501.891 982.936,498.557 979.5,495C 975.604,492.258 971.604,489.758 967.5,487.5C 965.216,487.025 963.216,486.025 961.5,484.5C 947.407,472.945 932.407,462.612 916.5,453.5C 915.609,452.89 914.609,452.557 913.5,452.5C 910.028,450.262 906.362,448.262 902.5,446.5C 902.5,445.5 902.5,444.5 902.5,443.5C 897.498,442.673 892.998,440.673 889,437.5C 888.667,437.833 888.333,438.167 888,438.5C 879.959,434.486 871.459,431.653 862.5,430C 857.49,426.504 852.157,425.671 846.5,427.5C 845.167,427.167 843.833,426.833 842.5,426.5C 842.53,425.503 842.03,424.836 841,424.5C 833.384,422.932 826.051,420.598 819,417.5C 818.586,417.957 818.086,418.291 817.5,418.5C 806.523,416.004 795.69,413.004 785,409.5C 784.127,409.735 783.293,410.069 782.5,410.5C 780.44,408.804 778.107,407.637 775.5,407C 770.845,406.501 766.179,406.334 761.5,406.5C 752.698,404.673 744.031,402.34 735.5,399.5C 734.5,399.167 733.833,398.5 733.5,397.5C 729.404,371.461 729.737,345.461 734.5,319.5C 741.638,277.947 751.138,236.947 763,196.5C 776.934,145.952 800.767,100.952 834.5,61.5C 843.937,51.5618 853.604,41.7284 863.5,32C 873.677,23.7395 883.677,15.2395 893.5,6.5C 897.192,4.65628 900.525,2.32294 903.5,-0.5 Z"/></g>
<g><path style="opacity:1" fill="#8ec9c3" d="M 1352.5,-0.5 C 1356.83,-0.5 1361.17,-0.5 1365.5,-0.5C 1365.5,1.16667 1365.5,2.83333 1365.5,4.5C 1360.78,3.63032 1356.44,1.96365 1352.5,-0.5 Z"/></g>
<g><path style="opacity:1" fill="#aed3cb" d="M 436.5,-0.5 C 437.167,-0.5 437.833,-0.5 438.5,-0.5C 436.532,12.1765 434.365,24.8432 432,37.5C 430.918,39.6181 429.751,41.6181 428.5,43.5C 429.234,36.5891 430.567,29.9224 432.5,23.5C 433.913,20.7814 434.58,17.7814 434.5,14.5C 435.167,9.5 435.833,4.5 436.5,-0.5 Z"/></g>
<g><path style="opacity:0.447" fill="#cde7dd" d="M 434.5,14.5 C 434.58,17.7814 433.913,20.7814 432.5,23.5C 432.42,20.2186 433.087,17.2186 434.5,14.5 Z"/></g>
<g><path style="opacity:1" fill="#87c8c5" d="M 940.5,22.5 C 942.931,26.0942 941.931,29.0942 937.5,31.5C 936.28,31.1131 935.613,30.2798 935.5,29C 936.283,26.0622 937.95,23.8955 940.5,22.5 Z"/></g>
<g><path style="opacity:1" fill="#8acac4" d="M 893.5,6.5 C 883.677,15.2395 873.677,23.7395 863.5,32C 853.604,41.7284 843.937,51.5618 834.5,61.5C 834.351,60.448 834.517,59.448 835,58.5C 838.498,55.9987 840.831,52.6654 842,48.5C 843.008,48.0183 844.175,47.8516 845.5,48C 847.167,44.3333 849.833,41.6667 853.5,40C 853.167,39.6667 852.833,39.3333 852.5,39C 855.34,34.4229 859.34,31.5895 864.5,30.5C 864.351,29.448 864.517,28.448 865,27.5C 869.088,25.7481 872.254,22.9148 874.5,19C 877.816,18.5454 879.982,16.7121 881,13.5C 881.333,13.8333 881.667,14.1667 882,14.5C 884.91,10.4102 888.744,7.74356 893.5,6.5 Z"/></g>
<g><path style="opacity:1" fill="#b7d7d0" d="M 428.5,44.5 C 427.331,57.5124 425.998,70.5124 424.5,83.5C 424.167,83.5 423.833,83.5 423.5,83.5C 423.972,70.2117 425.638,57.2117 428.5,44.5 Z"/></g>
<g><path style="opacity:0.995" fill="#bad8d1" d="M 424.5,119.5 C 425.117,119.611 425.617,119.944 426,120.5C 426.499,124.486 426.666,128.486 426.5,132.5C 425.105,128.409 424.438,124.076 424.5,119.5 Z"/></g>
<g><path style="opacity:1" fill="#add2cb" d="M 423.5,83.5 C 423.833,83.5 424.167,83.5 424.5,83.5C 424.334,92.8393 424.5,102.173 425,111.5C 426.969,119.674 428.469,128.008 429.5,136.5C 428.5,135.167 427.5,133.833 426.5,132.5C 426.666,128.486 426.499,124.486 426,120.5C 425.617,119.944 425.117,119.611 424.5,119.5C 422.493,107.632 422.159,95.6316 423.5,83.5 Z"/></g>
<g><path style="opacity:1" fill="#b2d3cd" d="M 426.5,132.5 C 427.5,133.833 428.5,135.167 429.5,136.5C 430.453,141.79 431.119,147.123 431.5,152.5C 428.918,146.173 427.252,139.507 426.5,132.5 Z"/></g>
<g><path style="opacity:0.749" fill="#b5d4cd" d="M 431.5,152.5 C 432.496,152.414 433.329,152.748 434,153.5C 434.497,156.146 434.664,158.813 434.5,161.5C 432.928,158.785 431.928,155.785 431.5,152.5 Z"/></g>
<g><path style="opacity:1" fill="#b4d6d1" d="M 434.5,161.5 C 435.496,161.414 436.329,161.748 437,162.5C 437.497,164.81 437.663,167.143 437.5,169.5C 435.98,167.11 434.98,164.443 434.5,161.5 Z"/></g>
<g><path style="opacity:0.886" fill="#c7ddda" d="M 437.5,169.5 C 438.309,170.469 439.309,171.302 440.5,172C 440.034,173.299 440.034,174.799 440.5,176.5C 438.707,174.574 437.707,172.241 437.5,169.5 Z"/></g>
<g><path style="opacity:1" fill="#b7d6d0" d="M 447.5,190.5 C 448.496,190.414 449.329,190.748 450,191.5C 451.544,194.738 453.044,198.071 454.5,201.5C 456.978,202.722 457.978,204.722 457.5,207.5C 453.414,202.335 450.08,196.668 447.5,190.5 Z"/></g>
<g><path style="opacity:1" fill="#b4d3cc" d="M 457.5,208.5 C 461.338,210.337 463.671,213.337 464.5,217.5C 465.5,217.5 466.5,217.5 467.5,217.5C 467.833,219.5 468.167,221.5 468.5,223.5C 464.479,218.804 460.812,213.804 457.5,208.5 Z"/></g>
<g><path style="opacity:1" fill="#b0d3cd" d="M 468.5,223.5 C 471.103,225.417 473.437,227.583 475.5,230C 474.944,230.383 474.611,230.883 474.5,231.5C 472.016,229.2 470.016,226.533 468.5,223.5 Z"/></g>
<g><path style="opacity:1" fill="#add2ca" d="M 474.5,232.5 C 478.556,232.893 480.556,235.227 480.5,239.5C 478.529,237.192 476.529,234.858 474.5,232.5 Z"/></g>
<g><path style="opacity:1" fill="#aed1ca" d="M 493.5,254.5 C 498.202,255.869 501.202,258.869 502.5,263.5C 499.167,260.833 496.167,257.833 493.5,254.5 Z"/></g>
<g><path style="opacity:1" fill="#aacec6" d="M 512.5,273.5 C 514.835,274.413 517.001,275.747 519,277.5C 519.791,278.745 520.291,280.078 520.5,281.5C 517.5,279.167 514.833,276.5 512.5,273.5 Z"/></g>
<g><path style="opacity:0.714" fill="#d2e7e0" d="M 522.5,283.5 C 524.027,283.427 525.027,284.094 525.5,285.5C 523.973,285.573 522.973,284.906 522.5,283.5 Z"/></g>
<g><path style="opacity:0.835" fill="#cbe3db" d="M 527.5,287.5 C 529.404,287.738 530.738,288.738 531.5,290.5C 529.596,290.262 528.262,289.262 527.5,287.5 Z"/></g>
<g><path style="opacity:1" fill="#aed2ca" d="M 531.5,290.5 C 535.568,290.562 538.235,292.562 539.5,296.5C 536.467,294.984 533.8,292.984 531.5,290.5 Z"/></g>
<g><path style="opacity:1" fill="#a8cec7" d="M 539.5,296.5 C 542.735,297.648 546.068,298.815 549.5,300C 550.54,303.545 552.873,305.379 556.5,305.5C 556.5,306.5 556.5,307.5 556.5,308.5C 550.299,305.235 544.632,301.235 539.5,296.5 Z"/></g>
<g><path style="opacity:1" fill="#b0d2ca" d="M 556.5,308.5 C 561.593,308.455 564.926,310.789 566.5,315.5C 562.808,313.656 559.475,311.323 556.5,308.5 Z"/></g>
<g><path style="opacity:1" fill="#aed2cb" d="M 566.5,315.5 C 570.8,314.799 573.466,316.466 574.5,320.5C 571.296,319.617 568.629,317.95 566.5,315.5 Z"/></g>
<g><path style="opacity:1" fill="#8bcac4" d="M 734.5,319.5 C 729.737,345.461 729.404,371.461 733.5,397.5C 732.833,397.5 732.167,397.5 731.5,397.5C 731.538,394.819 730.871,392.319 729.5,390C 730.966,387.562 730.632,385.395 728.5,383.5C 728.821,372.218 728.821,361.052 728.5,350C 729.183,340.916 730.516,331.916 732.5,323C 732.608,321.319 733.275,320.152 734.5,319.5 Z"/></g>
<g><path style="opacity:0.341" fill="#d6e7e4" d="M 583.5,326.5 C 585.027,326.427 586.027,327.094 586.5,328.5C 584.973,328.573 583.973,327.906 583.5,326.5 Z"/></g>
<g><path style="opacity:0.424" fill="#d3e7e1" d="M 588.5,329.5 C 590.027,329.427 591.027,330.094 591.5,331.5C 589.973,331.573 588.973,330.906 588.5,329.5 Z"/></g>
<g><path style="opacity:0.349" fill="#d4e7df" d="M 598.5,335.5 C 600.027,335.427 601.027,336.094 601.5,337.5C 599.973,337.573 598.973,336.906 598.5,335.5 Z"/></g>
<g><path style="opacity:1" fill="#adcfc8" d="M 591.5,331.5 C 595.136,331.819 598.469,332.985 601.5,335C 604.415,336.922 607.415,338.756 610.5,340.5C 611.425,341.357 612.092,342.357 612.5,343.5C 608.345,342.258 604.678,340.258 601.5,337.5C 601.027,336.094 600.027,335.427 598.5,335.5C 595.669,334.921 593.336,333.588 591.5,331.5 Z"/></g>
<g><path style="opacity:1" fill="#9fcbc5" d="M 612.5,343.5 C 616.576,343.68 620.409,344.68 624,346.5C 626.136,345.97 627.97,346.803 629.5,349C 629.167,349.333 628.833,349.667 628.5,350C 629.305,351.113 629.972,352.279 630.5,353.5C 624.17,350.67 618.17,347.337 612.5,343.5 Z"/></g>
<g><path style="opacity:1" fill="#b4d3ce" d="M 630.5,353.5 C 634.222,352.68 636.555,354.013 637.5,357.5C 634.669,356.921 632.336,355.588 630.5,353.5 Z"/></g>
<g><path style="opacity:1" fill="#b9d6d2" d="M 677.5,377.5 C 680.631,376.908 682.964,377.908 684.5,380.5C 681.843,380.065 679.509,379.065 677.5,377.5 Z"/></g>
<g><path style="opacity:1" fill="#a5ccc8" d="M 698.5,386.5 C 693.346,385.455 688.679,383.455 684.5,380.5C 686.833,379.833 689.167,379.167 691.5,378.5C 691.5,379.833 691.5,381.167 691.5,382.5C 694.614,382.555 696.948,383.888 698.5,386.5 Z"/></g>
<g><path style="opacity:1" fill="#b1d2cd" d="M 698.5,386.5 C 703.696,386.317 708.029,387.983 711.5,391.5C 706.989,390.069 702.655,388.402 698.5,386.5 Z"/></g>
<g><path style="opacity:0.886" fill="#c9dfdc" d="M 719.5,394.5 C 723.162,394.723 726.495,395.723 729.5,397.5C 725.838,397.277 722.505,396.277 719.5,394.5 Z"/></g>
<g><path style="opacity:0.947" fill="#b2d4ce" d="M 729.5,397.5 C 730.167,397.5 730.833,397.5 731.5,397.5C 732.167,397.5 732.833,397.5 733.5,397.5C 733.833,398.5 734.5,399.167 735.5,399.5C 735.5,402.167 735.5,404.833 735.5,407.5C 734.616,404.977 733.782,402.31 733,399.5C 731.698,398.915 730.531,398.249 729.5,397.5 Z"/></g>
<g><path style="opacity:1" fill="#92c9c2" d="M 735.5,399.5 C 744.031,402.34 752.698,404.673 761.5,406.5C 774.222,409.514 786.889,412.848 799.5,416.5C 800.392,419.113 802.059,419.779 804.5,418.5C 824.084,423.701 843.418,428.534 862.5,433C 862.998,434.158 863.831,434.991 865,435.5C 876.916,439.687 888.083,443.187 898.5,446C 902.874,447.868 906.874,450.368 910.5,453.5C 911.417,452.873 912.417,452.539 913.5,452.5C 914.609,452.557 915.609,452.89 916.5,453.5C 920.815,459.179 926.482,463.179 933.5,465.5C 939.844,472.001 947.177,477.167 955.5,481C 954.833,481.333 954.167,481.667 953.5,482C 955.445,485.372 958.111,486.205 961.5,484.5C 963.216,486.025 965.216,487.025 967.5,487.5C 976.833,495.833 986.167,504.167 995.5,512.5C 995.586,513.496 995.252,514.329 994.5,515C 997.843,517.177 1000.51,520.01 1002.5,523.5C 1006.98,525.479 1010.31,528.646 1012.5,533C 1019.43,535.594 1023.93,540.427 1026,547.5C 1030.02,550.024 1033.19,553.358 1035.5,557.5C 1036.42,558.127 1037.42,558.461 1038.5,558.5C 1041.88,561.567 1045.05,564.901 1048,568.5C 1075.66,605.818 1101.83,644.152 1126.5,683.5C 1126.89,685.284 1127.56,686.95 1128.5,688.5C 1126.9,688.768 1125.57,688.434 1124.5,687.5C 1120.73,684.839 1116.39,683.839 1111.5,684.5C 1107.34,683.178 1103.34,681.345 1099.5,679C 1090.86,677.507 1082.19,676.341 1073.5,675.5C 1070.98,673.265 1067.98,671.765 1064.5,671C 1058.12,670.511 1052.12,668.844 1046.5,666C 1043.85,665.503 1041.19,665.336 1038.5,665.5C 1037.83,665.5 1037.17,665.5 1036.5,665.5C 1035.28,663.228 1033.28,662.061 1030.5,662C 1031.94,661.781 1033.27,661.281 1034.5,660.5C 1034.17,659.5 1033.5,658.833 1032.5,658.5C 1029.72,660.13 1026.72,660.797 1023.5,660.5C 1022.08,658.692 1020.08,658.025 1017.5,658.5C 1013.61,654.194 1008.61,652.194 1002.5,652.5C 998.948,651.724 995.614,650.391 992.5,648.5C 990.383,644.774 987.05,643.107 982.5,643.5C 979.843,643.065 977.509,642.065 975.5,640.5C 975.586,639.504 975.252,638.671 974.5,638C 972.26,637.023 969.927,636.523 967.5,636.5C 964.369,632.109 960.036,629.776 954.5,629.5C 952.847,629.34 951.514,628.674 950.5,627.5C 950.489,625.983 949.823,624.816 948.5,624C 946.527,623.505 944.527,623.338 942.5,623.5C 940.76,619.795 937.76,618.128 933.5,618.5C 924.674,614.59 916.341,609.923 908.5,604.5C 908.414,603.504 908.748,602.671 909.5,602C 903.083,597.924 896.416,594.258 889.5,591C 888.207,590.51 886.873,590.343 885.5,590.5C 879.976,587.908 874.976,584.575 870.5,580.5C 869.649,575.32 866.649,573.32 861.5,574.5C 860.548,570.88 858.215,569.213 854.5,569.5C 851.883,568.214 849.55,566.547 847.5,564.5C 847.52,562.857 846.853,561.524 845.5,560.5C 845.709,559.914 846.043,559.414 846.5,559C 844.527,558.505 842.527,558.338 840.5,558.5C 837.252,552.246 832.252,548.246 825.5,546.5C 824.415,544.413 822.749,543.08 820.5,542.5C 820.167,540.5 819.833,538.5 819.5,536.5C 818.127,536.657 816.793,536.49 815.5,536C 814.638,533.247 813.305,530.747 811.5,528.5C 809.955,527.548 808.288,527.215 806.5,527.5C 806.611,526.883 806.944,526.383 807.5,526C 804.651,522.984 801.651,520.15 798.5,517.5C 796.783,512.45 793.45,509.116 788.5,507.5C 788.313,505.436 787.813,503.436 787,501.5C 785.989,500.663 784.822,500.33 783.5,500.5C 783.334,497.832 782.334,495.498 780.5,493.5C 779.575,492.438 778.575,492.438 777.5,493.5C 776.026,492.564 775.026,491.23 774.5,489.5C 773.962,487.883 773.629,486.216 773.5,484.5C 772.5,484.5 771.5,484.5 770.5,484.5C 770.5,484.167 770.5,483.833 770.5,483.5C 769.829,482.153 769.829,480.986 770.5,480C 769.033,478.902 768.199,477.402 768,475.5C 766.989,474.663 765.822,474.33 764.5,474.5C 762.75,473.341 761.75,471.674 761.5,469.5C 760.943,465.93 759.776,462.597 758,459.5C 755.791,454.991 752.958,450.991 749.5,447.5C 748.713,443.467 747.713,439.467 746.5,435.5C 749.429,434.351 749.929,432.685 748,430.5C 747.385,432.116 746.385,433.449 745,434.5C 742.18,426.706 740.18,418.706 739,410.5C 738.241,408.937 737.074,407.937 735.5,407.5C 735.5,404.833 735.5,402.167 735.5,399.5 Z"/></g>
<g><path style="opacity:1" fill="#61aea9" d="M 761.5,406.5 C 766.179,406.334 770.845,406.501 775.5,407C 778.107,407.637 780.44,408.804 782.5,410.5C 783.293,410.069 784.127,409.735 785,409.5C 795.69,413.004 806.523,416.004 817.5,418.5C 818.086,418.291 818.586,417.957 819,417.5C 826.051,420.598 833.384,422.932 841,424.5C 842.03,424.836 842.53,425.503 842.5,426.5C 828.298,422.633 813.964,419.299 799.5,416.5C 786.889,412.848 774.222,409.514 761.5,406.5 Z"/></g>
<g><path style="opacity:1" fill="#aacfc8" d="M 735.5,407.5 C 737.074,407.937 738.241,408.937 739,410.5C 740.18,418.706 742.18,426.706 745,434.5C 746.385,433.449 747.385,432.116 748,430.5C 749.929,432.685 749.429,434.351 746.5,435.5C 747.713,439.467 748.713,443.467 749.5,447.5C 742.668,435.008 738.001,421.675 735.5,407.5 Z"/></g>
<g><path style="opacity:1" fill="#8acac4" d="M 799.5,416.5 C 813.964,419.299 828.298,422.633 842.5,426.5C 843.833,426.833 845.167,427.167 846.5,427.5C 865.757,432.131 884.424,438.464 902.5,446.5C 906.362,448.262 910.028,450.262 913.5,452.5C 912.417,452.539 911.417,452.873 910.5,453.5C 906.874,450.368 902.874,447.868 898.5,446C 888.083,443.187 876.916,439.687 865,435.5C 863.831,434.991 862.998,434.158 862.5,433C 843.418,428.534 824.084,423.701 804.5,418.5C 802.059,419.779 800.392,419.113 799.5,416.5 Z"/></g>
<g><path style="opacity:1" fill="#60aea8" d="M 846.5,427.5 C 852.157,425.671 857.49,426.504 862.5,430C 871.459,431.653 879.959,434.486 888,438.5C 888.333,438.167 888.667,437.833 889,437.5C 892.998,440.673 897.498,442.673 902.5,443.5C 902.5,444.5 902.5,445.5 902.5,446.5C 884.424,438.464 865.757,432.131 846.5,427.5 Z"/></g>
<g><path style="opacity:1" fill="#b1d3cb" d="M 749.5,447.5 C 752.958,450.991 755.791,454.991 758,459.5C 759.776,462.597 760.943,465.93 761.5,469.5C 756.488,462.815 752.488,455.482 749.5,447.5 Z"/></g>
<g><path style="opacity:1" fill="#8ac9c4" d="M 916.5,453.5 C 932.407,462.612 947.407,472.945 961.5,484.5C 958.111,486.205 955.445,485.372 953.5,482C 954.167,481.667 954.833,481.333 955.5,481C 947.177,477.167 939.844,472.001 933.5,465.5C 926.482,463.179 920.815,459.179 916.5,453.5 Z"/></g>
<g><path style="opacity:1" fill="#accfcb" d="M 764.5,474.5 C 765.822,474.33 766.989,474.663 768,475.5C 768.199,477.402 769.033,478.902 770.5,480C 769.829,480.986 769.829,482.153 770.5,483.5C 767.759,481.025 765.759,478.025 764.5,474.5 Z"/></g>
<g><path style="opacity:0.969" fill="#b7d8d2" d="M 770.5,484.5 C 771.5,484.5 772.5,484.5 773.5,484.5C 773.629,486.216 773.962,487.883 774.5,489.5C 772.937,488.055 771.604,486.389 770.5,484.5 Z"/></g>
<g><path style="opacity:1" fill="#a8cec8" d="M 788.5,507.5 C 784.101,503.432 780.435,498.765 777.5,493.5C 778.575,492.438 779.575,492.438 780.5,493.5C 782.334,495.498 783.334,497.832 783.5,500.5C 784.822,500.33 785.989,500.663 787,501.5C 787.813,503.436 788.313,505.436 788.5,507.5 Z"/></g>
<g><path style="opacity:1" fill="#5fada8" d="M 967.5,487.5 C 971.604,489.758 975.604,492.258 979.5,495C 982.936,498.557 986.603,501.891 990.5,505C 992.087,505.862 993.754,506.529 995.5,507C 999.514,511.052 1003.18,515.385 1006.5,520C 1008.78,520.233 1010.78,521.066 1012.5,522.5C 1013.73,523.651 1013.73,524.817 1012.5,526C 1017.03,529.86 1021.19,534.027 1025,538.5C 1025.33,537.833 1025.67,537.167 1026,536.5C 1027.8,540.07 1029.3,543.737 1030.5,547.5C 1019.86,534.86 1008.19,523.194 995.5,512.5C 986.167,504.167 976.833,495.833 967.5,487.5 Z"/></g>
<g><path style="opacity:1" fill="#accec9" d="M 788.5,507.5 C 793.45,509.116 796.783,512.45 798.5,517.5C 801.651,520.15 804.651,522.984 807.5,526C 806.944,526.383 806.611,526.883 806.5,527.5C 799.418,521.754 793.418,515.087 788.5,507.5 Z"/></g>
<g><path style="opacity:1" fill="#89c9c3" d="M 995.5,512.5 C 1008.19,523.194 1019.86,534.86 1030.5,547.5C 1033.89,550.589 1036.55,554.255 1038.5,558.5C 1037.42,558.461 1036.42,558.127 1035.5,557.5C 1033.19,553.358 1030.02,550.024 1026,547.5C 1023.93,540.427 1019.43,535.594 1012.5,533C 1010.31,528.646 1006.98,525.479 1002.5,523.5C 1000.51,520.01 997.843,517.177 994.5,515C 995.252,514.329 995.586,513.496 995.5,512.5 Z"/></g>
<g><path style="opacity:1" fill="#a6cfc7" d="M 806.5,527.5 C 808.288,527.215 809.955,527.548 811.5,528.5C 813.305,530.747 814.638,533.247 815.5,536C 816.793,536.49 818.127,536.657 819.5,536.5C 819.833,538.5 820.167,540.5 820.5,542.5C 817.5,540.167 814.833,537.5 812.5,534.5C 812.167,532.167 810.833,530.833 808.5,530.5C 807.833,529.5 807.167,528.5 806.5,527.5 Z"/></g>
<g><path style="opacity:0.627" fill="#deecea" d="M 808.5,530.5 C 810.833,530.833 812.167,532.167 812.5,534.5C 810.833,533.5 809.5,532.167 808.5,530.5 Z"/></g>
<g><path style="opacity:0.757" fill="#cae9de" d="M 820.5,542.5 C 822.749,543.08 824.415,544.413 825.5,546.5C 823.251,545.92 821.585,544.587 820.5,542.5 Z"/></g>
<g><path style="opacity:0.686" fill="#cee7e1" d="M 831.5,552.5 C 833.027,552.427 834.027,553.094 834.5,554.5C 832.973,554.573 831.973,553.906 831.5,552.5 Z"/></g>
<g><path style="opacity:1" fill="#a2ccc6" d="M 825.5,546.5 C 832.252,548.246 837.252,552.246 840.5,558.5C 842.527,558.338 844.527,558.505 846.5,559C 846.043,559.414 845.709,559.914 845.5,560.5C 846.853,561.524 847.52,562.857 847.5,564.5C 842.591,561.926 838.258,558.592 834.5,554.5C 834.027,553.094 833.027,552.427 831.5,552.5C 829.167,550.833 827.167,548.833 825.5,546.5 Z"/></g>
<g><path style="opacity:1" fill="#add2cb" d="M 854.5,569.5 C 858.215,569.213 860.548,570.88 861.5,574.5C 858.63,573.567 856.296,571.9 854.5,569.5 Z"/></g>
<g><path style="opacity:1" fill="#acd1c8" d="M 861.5,574.5 C 866.649,573.32 869.649,575.32 870.5,580.5C 866.975,579.241 863.975,577.241 861.5,574.5 Z"/></g>
<g><path style="opacity:1" fill="#a9cfc7" d="M 885.5,590.5 C 886.873,590.343 888.207,590.51 889.5,591C 896.416,594.258 903.083,597.924 909.5,602C 908.748,602.671 908.414,603.504 908.5,604.5C 900.325,600.583 892.659,595.917 885.5,590.5 Z"/></g>
<g><path style="opacity:1" fill="#aed2cc" d="M 933.5,618.5 C 937.76,618.128 940.76,619.795 942.5,623.5C 939.008,622.59 936.008,620.924 933.5,618.5 Z"/></g>
<g><path style="opacity:1" fill="#add0c9" d="M 942.5,623.5 C 944.527,623.338 946.527,623.505 948.5,624C 949.823,624.816 950.489,625.983 950.5,627.5C 947.515,626.674 944.849,625.341 942.5,623.5 Z"/></g>
<g><path style="opacity:1" fill="#afd2cb" d="M 954.5,629.5 C 960.036,629.776 964.369,632.109 967.5,636.5C 962.91,634.561 958.577,632.227 954.5,629.5 Z"/></g>
<g><path style="opacity:1" fill="#b1d3ce" d="M 967.5,636.5 C 969.927,636.523 972.26,637.023 974.5,638C 975.252,638.671 975.586,639.504 975.5,640.5C 972.515,639.674 969.849,638.341 967.5,636.5 Z"/></g>
<g><path style="opacity:1" fill="#b0d4ce" d="M 982.5,643.5 C 987.05,643.107 990.383,644.774 992.5,648.5C 988.849,647.341 985.515,645.674 982.5,643.5 Z"/></g>
<g><path style="opacity:1" fill="#a7cec8" d="M 1002.5,652.5 C 1008.61,652.194 1013.61,654.194 1017.5,658.5C 1012.1,657.262 1007.1,655.262 1002.5,652.5 Z"/></g>
<g><path style="opacity:0.949" fill="#b6d3cb" d="M 1017.5,658.5 C 1020.08,658.025 1022.08,658.692 1023.5,660.5C 1021.21,660.405 1019.21,659.738 1017.5,658.5 Z"/></g>
<g><path style="opacity:1" fill="#a7cfca" d="M 1036.5,665.5 C 1031.86,664.401 1027.52,662.734 1023.5,660.5C 1026.72,660.797 1029.72,660.13 1032.5,658.5C 1033.5,658.833 1034.17,659.5 1034.5,660.5C 1033.27,661.281 1031.94,661.781 1030.5,662C 1033.28,662.061 1035.28,663.228 1036.5,665.5 Z"/></g>
<g><path style="opacity:1" fill="#abcfc8" d="M 1038.5,665.5 C 1041.19,665.336 1043.85,665.503 1046.5,666C 1052.12,668.844 1058.12,670.511 1064.5,671C 1067.98,671.765 1070.98,673.265 1073.5,675.5C 1061.43,673.235 1049.76,669.902 1038.5,665.5 Z"/></g>
<g><path style="opacity:1" fill="#a6cfc6" d="M 1073.5,675.5 C 1082.19,676.341 1090.86,677.507 1099.5,679C 1103.34,681.345 1107.34,683.178 1111.5,684.5C 1098.58,682.101 1085.91,679.101 1073.5,675.5 Z"/></g>
<g><path style="opacity:0.987" fill="#b1d6cd" d="M 1111.5,684.5 C 1116.39,683.839 1120.73,684.839 1124.5,687.5C 1119.95,686.943 1115.62,685.943 1111.5,684.5 Z"/></g>
<g><path style="opacity:1" fill="#61aea8" d="M 1126.5,683.5 C 1129.24,685.93 1132.07,687.597 1135,688.5C 1136.73,687.424 1138.56,687.257 1140.5,688C 1151.11,690.957 1161.78,693.957 1172.5,697C 1173.93,697.465 1175.1,698.299 1176,699.5C 1177.05,698.483 1178.22,698.316 1179.5,699C 1177.4,699.556 1177.24,700.056 1179,700.5C 1180.7,699.3 1182.2,699.633 1183.5,701.5C 1189.23,702.534 1194.23,704.867 1198.5,708.5C 1194.01,706.59 1189.34,705.257 1184.5,704.5C 1166.4,697.637 1147.73,692.304 1128.5,688.5C 1127.56,686.95 1126.89,685.284 1126.5,683.5 Z"/></g>
<g><path style="opacity:1" fill="#b1d2cb" d="M 1130.5,691.5 C 1131.17,691.5 1131.83,691.5 1132.5,691.5C 1132.82,693.048 1133.82,693.715 1135.5,693.5C 1135.23,695.451 1135.89,696.951 1137.5,698C 1136.94,698.383 1136.61,698.883 1136.5,699.5C 1134.15,697.14 1132.15,694.473 1130.5,691.5 Z"/></g>
<g><path style="opacity:1" fill="#99cac4" d="M 1132.5,691.5 C 1137.59,693.534 1142.93,694.7 1148.5,695C 1149.06,695.383 1149.39,695.883 1149.5,696.5C 1148.8,700.724 1149.46,704.891 1151.5,709C 1151.17,709.833 1150.83,710.667 1150.5,711.5C 1146.14,704.569 1145.14,704.903 1147.5,712.5C 1151.54,713.594 1153.21,716.261 1152.5,720.5C 1153.5,720.5 1154.5,720.5 1155.5,720.5C 1154.92,723.55 1156.09,725.55 1159,726.5C 1159.48,727.448 1159.65,728.448 1159.5,729.5C 1150.38,720.589 1142.72,710.589 1136.5,699.5C 1136.61,698.883 1136.94,698.383 1137.5,698C 1135.89,696.951 1135.23,695.451 1135.5,693.5C 1133.82,693.715 1132.82,693.048 1132.5,691.5 Z"/></g>
<g><path style="opacity:1" fill="#92c9c2" d="M 1149.5,696.5 C 1152.01,696.838 1154.34,696.838 1156.5,696.5C 1158.12,697.115 1159.45,698.115 1160.5,699.5C 1161.09,699.291 1161.59,698.957 1162,698.5C 1166.33,700.167 1170.67,701.833 1175,703.5C 1175.91,702.346 1176.75,702.513 1177.5,704C 1179.81,704.497 1182.14,704.663 1184.5,704.5C 1189.34,705.257 1194.01,706.59 1198.5,708.5C 1209.2,713.849 1219.86,719.182 1230.5,724.5C 1230.28,725.675 1230.61,726.675 1231.5,727.5C 1244.26,735.581 1256.26,743.747 1267.5,752C 1272.85,757.536 1278.51,762.703 1284.5,767.5C 1256.17,767.5 1227.83,767.5 1199.5,767.5C 1199.5,766.5 1199.5,765.5 1199.5,764.5C 1198.5,764.5 1197.5,764.5 1196.5,764.5C 1196.1,759.674 1193.43,757.674 1188.5,758.5C 1187.03,754.243 1184.03,751.576 1179.5,750.5C 1179.66,749.127 1179.49,747.793 1179,746.5C 1176.97,745.307 1175.47,743.64 1174.5,741.5C 1172.51,739.673 1170.18,738.673 1167.5,738.5C 1164.1,736.1 1161.43,733.1 1159.5,729.5C 1159.65,728.448 1159.48,727.448 1159,726.5C 1156.09,725.55 1154.92,723.55 1155.5,720.5C 1154.5,720.5 1153.5,720.5 1152.5,720.5C 1153.21,716.261 1151.54,713.594 1147.5,712.5C 1145.14,704.903 1146.14,704.569 1150.5,711.5C 1150.83,710.667 1151.17,709.833 1151.5,709C 1149.46,704.891 1148.8,700.724 1149.5,696.5 Z"/></g>
<g><path style="opacity:1" fill="#8acac3" d="M 1128.5,688.5 C 1147.73,692.304 1166.4,697.637 1184.5,704.5C 1182.14,704.663 1179.81,704.497 1177.5,704C 1176.75,702.513 1175.91,702.346 1175,703.5C 1170.67,701.833 1166.33,700.167 1162,698.5C 1161.59,698.957 1161.09,699.291 1160.5,699.5C 1159.45,698.115 1158.12,697.115 1156.5,696.5C 1154.34,696.838 1152.01,696.838 1149.5,696.5C 1149.39,695.883 1149.06,695.383 1148.5,695C 1142.93,694.7 1137.59,693.534 1132.5,691.5C 1131.83,691.5 1131.17,691.5 1130.5,691.5C 1129.83,690.5 1129.17,689.5 1128.5,688.5 Z"/></g>
<g><path style="opacity:1" fill="#8acac4" d="M 1230.5,724.5 C 1250.98,736.999 1269.98,751.332 1287.5,767.5C 1286.5,767.5 1285.5,767.5 1284.5,767.5C 1278.51,762.703 1272.85,757.536 1267.5,752C 1256.26,743.747 1244.26,735.581 1231.5,727.5C 1230.61,726.675 1230.28,725.675 1230.5,724.5 Z"/></g>
<g><path style="opacity:1" fill="#a6cdc5" d="M 1167.5,738.5 C 1170.18,738.673 1172.51,739.673 1174.5,741.5C 1175.47,743.64 1176.97,745.307 1179,746.5C 1179.49,747.793 1179.66,749.127 1179.5,750.5C 1174.52,747.521 1170.52,743.521 1167.5,738.5 Z"/></g>
<g><path style="opacity:1" fill="#abcec6" d="M 1179.5,750.5 C 1184.03,751.576 1187.03,754.243 1188.5,758.5C 1184.9,756.57 1181.9,753.903 1179.5,750.5 Z"/></g>
<g><path style="opacity:1" fill="#a6ccc3" d="M 1188.5,758.5 C 1193.43,757.674 1196.1,759.674 1196.5,764.5C 1197.5,764.5 1198.5,764.5 1199.5,764.5C 1199.5,765.5 1199.5,766.5 1199.5,767.5C 1199.17,767.5 1198.83,767.5 1198.5,767.5C 1194.79,764.968 1191.46,761.968 1188.5,758.5 Z"/></g>
</svg>
