<?xml version="1.0" encoding="UTF-8"?>
<!DOCTYPE svg PUBLIC "-//W3C//DTD SVG 1.1//EN" "http://www.w3.org/Graphics/SVG/1.1/DTD/svg11.dtd">
<svg xmlns="http://www.w3.org/2000/svg" version="1.1" width="666px" height="374px" style="shape-rendering:geometricPrecision; text-rendering:geometricPrecision; image-rendering:optimizeQuality; fill-rule:evenodd; clip-rule:evenodd" xmlns:xlink="http://www.w3.org/1999/xlink">
<g><path style="opacity:1" fill="#ddeae3" d="M 212.5,-0.5 C 288.167,-0.5 363.833,-0.5 439.5,-0.5C 439.167,0.166667 438.833,0.833333 438.5,1.5C 412.974,18.8778 393.64,41.7112 380.5,70C 378.993,73.0212 377.993,76.1879 377.5,79.5C 370.825,95.8392 365.825,112.839 362.5,130.5C 358.24,135.043 356.907,140.377 358.5,146.5C 358.26,148.89 357.26,150.89 355.5,152.5C 356.553,157.045 356.22,161.545 354.5,166C 354.704,173.121 354.704,180.287 354.5,187.5C 354.667,188.833 354.833,190.167 355,191.5C 355.383,190.944 355.883,190.611 356.5,190.5C 357.11,191.391 357.443,192.391 357.5,193.5C 358.301,195.042 358.634,196.708 358.5,198.5C 357.399,197.152 356.399,195.652 355.5,194C 319.326,181.136 285.993,163.136 255.5,140C 237.588,124.33 223.421,105.83 213,84.5C 210.067,77.7686 208.234,70.7686 207.5,63.5C 207.5,51.5 207.5,39.5 207.5,27.5C 208.427,17.9999 210.094,8.66653 212.5,-0.5 Z"/></g>
<g><path style="opacity:1" fill="#c0ddd7" d="M 439.5,-0.5 C 514.833,-0.5 590.167,-0.5 665.5,-0.5C 665.5,124.167 665.5,248.833 665.5,373.5C 652.833,373.5 640.167,373.5 627.5,373.5C 620.191,367.53 612.858,361.53 605.5,355.5C 605.108,351.302 602.775,349.468 598.5,350C 599.668,348.129 599.168,346.629 597,345.5C 596.667,345.833 596.333,346.167 596,346.5C 591.299,345.273 587.132,343.106 583.5,340C 575.95,339.426 568.783,337.593 562,334.5C 557.364,336.048 553.53,334.882 550.5,331C 550.833,330.667 551.167,330.333 551.5,330C 550.552,329.517 549.552,329.351 548.5,329.5C 545.338,327.555 542.838,324.888 541,321.5C 538.189,313.888 533.856,307.221 528,301.5C 522.082,291.335 515.415,281.669 508,272.5C 505.308,270.138 502.641,267.804 500,265.5C 497.805,262.786 495.971,259.786 494.5,256.5C 487.435,251.941 481.101,246.441 475.5,240C 467.751,235.737 460.751,230.571 454.5,224.5C 452.5,223.833 450.5,223.167 448.5,222.5C 445.862,219.789 442.862,217.789 439.5,216.5C 414.167,208.583 388.5,201.749 362.5,196C 361.016,195.338 359.683,194.504 358.5,193.5C 358.407,181.979 358.574,170.312 359,158.5C 360.454,154.951 360.954,151.451 360.5,148C 361.414,145.379 362.581,142.879 364,140.5C 364.333,141.5 364.667,142.5 365,143.5C 364.594,137.528 364.594,131.528 365,125.5C 365.561,123.275 366.561,121.275 368,119.5C 369.633,111.906 371.3,104.24 373,96.5C 373.667,95.8333 374.333,95.1667 375,94.5C 376.574,89.6158 377.407,84.6158 377.5,79.5C 378.376,79.6309 379.043,79.2975 379.5,78.5C 381.687,73.8091 383.687,69.1424 385.5,64.5C 388.559,63.5435 389.559,61.7101 388.5,59C 394.001,56.5683 396.334,52.5683 395.5,47C 396.595,45.3247 398.095,44.158 400,43.5C 403.025,39.9443 405.525,35.9443 407.5,31.5C 411.5,28.8259 415.167,25.8259 418.5,22.5C 420.477,20.4426 421.977,18.1093 423,15.5C 423.333,15.8333 423.667,16.1667 424,16.5C 427.92,14.291 431.086,11.291 433.5,7.5C 434.736,6.75415 436.07,6.42082 437.5,6.5C 437.629,4.7839 437.962,3.11723 438.5,1.5C 438.833,0.833333 439.167,0.166667 439.5,-0.5 Z"/></g>
<g><path style="opacity:0.194" fill="#e9eee8" d="M 207.5,27.5 C 207.5,39.5 207.5,51.5 207.5,63.5C 206.732,62.7375 206.232,61.7375 206,60.5C 205.833,55.8333 205.667,51.1667 205.5,46.5C 205.284,39.9201 205.951,33.5868 207.5,27.5 Z"/></g>
<g><path style="opacity:1" fill="#c5ddd8" d="M 438.5,1.5 C 437.962,3.11723 437.629,4.7839 437.5,6.5C 436.07,6.42082 434.736,6.75415 433.5,7.5C 431.086,11.291 427.92,14.291 424,16.5C 423.667,16.1667 423.333,15.8333 423,15.5C 421.977,18.1093 420.477,20.4426 418.5,22.5C 415.167,25.8259 411.5,28.8259 407.5,31.5C 405.525,35.9443 403.025,39.9443 400,43.5C 398.095,44.158 396.595,45.3247 395.5,47C 396.334,52.5683 394.001,56.5683 388.5,59C 389.559,61.7101 388.559,63.5435 385.5,64.5C 383.687,69.1424 381.687,73.8091 379.5,78.5C 379.043,79.2975 378.376,79.6309 377.5,79.5C 377.993,76.1879 378.993,73.0212 380.5,70C 393.64,41.7112 412.974,18.8778 438.5,1.5 Z"/></g>
<g><path style="opacity:1" fill="#c5ddd7" d="M 377.5,79.5 C 377.407,84.6158 376.574,89.6158 375,94.5C 374.333,95.1667 373.667,95.8333 373,96.5C 371.3,104.24 369.633,111.906 368,119.5C 366.561,121.275 365.561,123.275 365,125.5C 364.594,131.528 364.594,137.528 365,143.5C 364.667,142.5 364.333,141.5 364,140.5C 362.581,142.879 361.414,145.379 360.5,148C 360.954,151.451 360.454,154.951 359,158.5C 358.574,170.312 358.407,181.979 358.5,193.5C 358.167,193.5 357.833,193.5 357.5,193.5C 357.443,192.391 357.11,191.391 356.5,190.5C 356.334,181.161 356.5,171.827 357,162.5C 358.671,151.796 360.504,141.129 362.5,130.5C 365.825,112.839 370.825,95.8392 377.5,79.5 Z"/></g>
<g><path style="opacity:1" fill="#d7e9e3" d="M 362.5,130.5 C 360.504,141.129 358.671,151.796 357,162.5C 356.5,171.827 356.334,181.161 356.5,190.5C 355.883,190.611 355.383,190.944 355,191.5C 354.833,190.167 354.667,188.833 354.5,187.5C 354.704,180.287 354.704,173.121 354.5,166C 356.22,161.545 356.553,157.045 355.5,152.5C 357.26,150.89 358.26,148.89 358.5,146.5C 356.907,140.377 358.24,135.043 362.5,130.5 Z"/></g>
<g><path style="opacity:1" fill="#d3e7e1" d="M 357.5,193.5 C 357.833,193.5 358.167,193.5 358.5,193.5C 359.683,194.504 361.016,195.338 362.5,196C 388.5,201.749 414.167,208.583 439.5,216.5C 442.862,217.789 445.862,219.789 448.5,222.5C 450.5,223.167 452.5,223.833 454.5,224.5C 460.751,230.571 467.751,235.737 475.5,240C 481.101,246.441 487.435,251.941 494.5,256.5C 495.971,259.786 497.805,262.786 500,265.5C 502.641,267.804 505.308,270.138 508,272.5C 515.415,281.669 522.082,291.335 528,301.5C 533.856,307.221 538.189,313.888 541,321.5C 542.838,324.888 545.338,327.555 548.5,329.5C 548.5,330.833 548.5,332.167 548.5,333.5C 547.596,332.791 547.263,331.791 547.5,330.5C 540.839,330.07 534.505,329.237 528.5,328C 527.953,327.075 527.287,326.242 526.5,325.5C 525.284,326.002 524.117,326.335 523,326.5C 514.714,325.555 506.547,323.888 498.5,321.5C 498.167,321.5 497.833,321.5 497.5,321.5C 496.972,320.279 496.305,319.113 495.5,318C 490.491,317.417 485.824,315.917 481.5,313.5C 480.738,312.372 480.071,311.205 479.5,310C 476.518,309.502 473.518,309.335 470.5,309.5C 468.973,306.932 466.639,305.599 463.5,305.5C 463.5,304.5 463.5,303.5 463.5,302.5C 460.833,302.167 458.167,301.833 455.5,301.5C 451.313,300.244 447.646,298.244 444.5,295.5C 442.532,291.261 439.198,288.594 434.5,287.5C 433.817,287.863 433.15,288.196 432.5,288.5C 431.052,282.893 427.385,280.06 421.5,280C 422.061,278.434 421.394,277.101 419.5,276C 416.693,273.208 413.36,271.208 409.5,270C 405.335,265.99 401.002,261.49 396.5,256.5C 395.675,255.614 394.675,255.281 393.5,255.5C 393.226,251.052 390.892,248.219 386.5,247C 386.833,246.667 387.167,246.333 387.5,246C 386.5,245.667 385.5,245.333 384.5,245C 383.81,242.304 382.31,240.137 380,238.5C 379.51,237.207 379.343,235.873 379.5,234.5C 377.833,234.5 376.167,234.5 374.5,234.5C 371.333,230.997 369,226.997 367.5,222.5C 367.982,221.584 368.315,220.584 368.5,219.5C 367.584,215.836 366.251,212.336 364.5,209C 364.82,207.347 365.82,206.347 367.5,206C 365.5,205.333 363.5,204.667 361.5,204C 360.601,202.348 359.601,200.848 358.5,199.5C 358.5,199.167 358.5,198.833 358.5,198.5C 358.634,196.708 358.301,195.042 357.5,193.5 Z"/></g>
<g><path style="opacity:0.999" fill="#dde8e4" d="M 358.5,199.5 C 359.601,200.848 360.601,202.348 361.5,204C 363.5,204.667 365.5,205.333 367.5,206C 365.82,206.347 364.82,207.347 364.5,209C 366.251,212.336 367.584,215.836 368.5,219.5C 368.315,220.584 367.982,221.584 367.5,222.5C 364.355,217.946 361.855,212.946 360,207.5C 358.921,204.937 358.421,202.271 358.5,199.5 Z"/></g>
<g><path style="opacity:0.998" fill="#dce9e2" d="M 374.5,234.5 C 376.167,234.5 377.833,234.5 379.5,234.5C 379.343,235.873 379.51,237.207 380,238.5C 382.31,240.137 383.81,242.304 384.5,245C 385.5,245.333 386.5,245.667 387.5,246C 387.167,246.333 386.833,246.667 386.5,247C 390.892,248.219 393.226,251.052 393.5,255.5C 394.675,255.281 395.675,255.614 396.5,256.5C 401.002,261.49 405.335,265.99 409.5,270C 413.36,271.208 416.693,273.208 419.5,276C 421.394,277.101 422.061,278.434 421.5,280C 427.385,280.06 431.052,282.893 432.5,288.5C 409.018,275.02 389.685,257.02 374.5,234.5 Z"/></g>
<g><path style="opacity:1" fill="#dfebe4" d="M 444.5,295.5 C 440.164,293.668 436.164,291.335 432.5,288.5C 433.15,288.196 433.817,287.863 434.5,287.5C 439.198,288.594 442.532,291.261 444.5,295.5 Z"/></g>
<g><path style="opacity:0.996" fill="#e2ece5" d="M 455.5,301.5 C 458.167,301.833 460.833,302.167 463.5,302.5C 463.5,303.5 463.5,304.5 463.5,305.5C 466.639,305.599 468.973,306.932 470.5,309.5C 465.016,307.593 460.016,304.927 455.5,301.5 Z"/></g>
<g><path style="opacity:0.999" fill="#e0ebe4" d="M 470.5,309.5 C 473.518,309.335 476.518,309.502 479.5,310C 480.071,311.205 480.738,312.372 481.5,313.5C 485.824,315.917 490.491,317.417 495.5,318C 496.305,319.113 496.972,320.279 497.5,321.5C 487.9,318.642 478.9,314.642 470.5,309.5 Z"/></g>
<g><path style="opacity:1" fill="#ddeae3" d="M 498.5,321.5 C 506.547,323.888 514.714,325.555 523,326.5C 524.117,326.335 525.284,326.002 526.5,325.5C 527.287,326.242 527.953,327.075 528.5,328C 534.505,329.237 540.839,330.07 547.5,330.5C 547.263,331.791 547.596,332.791 548.5,333.5C 560.719,337.543 573.052,341.376 585.5,345C 592.094,348.795 598.761,352.295 605.5,355.5C 612.858,361.53 620.191,367.53 627.5,373.5C 612.5,373.5 597.5,373.5 582.5,373.5C 575.895,367.397 569.395,361.063 563,354.5C 558.045,348.089 553.211,341.589 548.5,335C 531.25,332.024 514.583,327.524 498.5,321.5 Z"/></g>
<g><path style="opacity:1" fill="#c4dcd6" d="M 548.5,329.5 C 549.552,329.351 550.552,329.517 551.5,330C 551.167,330.333 550.833,330.667 550.5,331C 553.53,334.882 557.364,336.048 562,334.5C 568.783,337.593 575.95,339.426 583.5,340C 587.132,343.106 591.299,345.273 596,346.5C 596.333,346.167 596.667,345.833 597,345.5C 599.168,346.629 599.668,348.129 598.5,350C 602.775,349.468 605.108,351.302 605.5,355.5C 598.761,352.295 592.094,348.795 585.5,345C 573.052,341.376 560.719,337.543 548.5,333.5C 548.5,332.167 548.5,330.833 548.5,329.5 Z"/></g>
</svg>
