<?xml version="1.0" encoding="UTF-8"?>
<!DOCTYPE svg PUBLIC "-//W3C//DTD SVG 1.1//EN" "http://www.w3.org/Graphics/SVG/1.1/DTD/svg11.dtd">
<svg xmlns="http://www.w3.org/2000/svg" version="1.1" width="1366px" height="768px" style="shape-rendering:geometricPrecision; text-rendering:geometricPrecision; image-rendering:optimizeQuality; fill-rule:evenodd; clip-rule:evenodd" xmlns:xlink="http://www.w3.org/1999/xlink">
<g><path style="opacity:1" fill="#f4f4ee" d="M -0.5,-0.5 C 454.833,-0.5 910.167,-0.5 1365.5,-0.5C 1365.5,62.5 1365.5,125.5 1365.5,188.5C 1319.49,188.867 1273.49,188.367 1227.5,187C 1209.07,185.397 1190.74,183.064 1172.5,180C 1127.09,171.385 1081.76,162.385 1036.5,153C 1011.67,148.214 986.668,144.548 961.5,142C 927.438,140.976 893.438,141.976 859.5,145C 809.388,154.559 765.388,176.059 727.5,209.5C 726.833,209.5 726.167,209.5 725.5,209.5C 649.407,200.715 580.74,218.882 519.5,264C 469.864,301.625 430.364,347.792 401,402.5C 374.381,453.354 353.048,506.354 337,561.5C 330.671,584.467 324.338,607.467 318,630.5C 309.474,659.429 297.474,686.762 282,712.5C 269.103,731.56 255.27,749.894 240.5,767.5C 160.167,767.5 79.8333,767.5 -0.5,767.5C -0.5,511.5 -0.5,255.5 -0.5,-0.5 Z"/></g>
<g><path style="opacity:1" fill="#93c9c3" d="M 1365.5,188.5 C 1365.5,214.833 1365.5,241.167 1365.5,267.5C 1347.85,252.885 1327.52,244.385 1304.5,242C 1290.5,241.333 1276.5,241.333 1262.5,242C 1224.09,246.259 1185.76,250.926 1147.5,256C 1102.82,256.896 1058.15,256.563 1013.5,255C 991.051,253.314 968.718,250.647 946.5,247C 887.589,235.203 828.589,223.87 769.5,213C 755.552,211.17 741.552,210.003 727.5,209.5C 765.388,176.059 809.388,154.559 859.5,145C 893.438,141.976 927.438,140.976 961.5,142C 986.668,144.548 1011.67,148.214 1036.5,153C 1081.76,162.385 1127.09,171.385 1172.5,180C 1190.74,183.064 1209.07,185.397 1227.5,187C 1273.49,188.367 1319.49,188.867 1365.5,188.5 Z"/></g>
<g><path style="opacity:1" fill="#93c9c3" d="M 725.5,209.5 C 683.799,245.277 649.966,287.277 624,335.5C 597.715,385.351 576.715,437.351 561,491.5C 553.691,516.736 546.691,542.07 540,567.5C 529.549,602.735 513.549,635.068 492,664.5C 465.021,696.461 441.521,730.794 421.5,767.5C 361.167,767.5 300.833,767.5 240.5,767.5C 255.27,749.894 269.103,731.56 282,712.5C 297.474,686.762 309.474,659.429 318,630.5C 324.338,607.467 330.671,584.467 337,561.5C 353.048,506.354 374.381,453.354 401,402.5C 430.364,347.792 469.864,301.625 519.5,264C 580.74,218.882 649.407,200.715 725.5,209.5 Z"/></g>
<g><path style="opacity:1" fill="#59afa9" d="M 725.5,209.5 C 726.167,209.5 726.833,209.5 727.5,209.5C 741.552,210.003 755.552,211.17 769.5,213C 828.589,223.87 887.589,235.203 946.5,247C 968.718,250.647 991.051,253.314 1013.5,255C 1058.15,256.563 1102.82,256.896 1147.5,256C 1185.76,250.926 1224.09,246.259 1262.5,242C 1276.5,241.333 1290.5,241.333 1304.5,242C 1327.52,244.385 1347.85,252.885 1365.5,267.5C 1365.5,434.167 1365.5,600.833 1365.5,767.5C 1050.83,767.5 736.167,767.5 421.5,767.5C 441.521,730.794 465.021,696.461 492,664.5C 513.549,635.068 529.549,602.735 540,567.5C 546.691,542.07 553.691,516.736 561,491.5C 576.715,437.351 597.715,385.351 624,335.5C 649.966,287.277 683.799,245.277 725.5,209.5 Z"/></g>
</svg>
