<?xml version="1.0" encoding="UTF-8"?>
<!DOCTYPE svg PUBLIC "-//W3C//DTD SVG 1.1//EN" "http://www.w3.org/Graphics/SVG/1.1/DTD/svg11.dtd">
<svg xmlns="http://www.w3.org/2000/svg" version="1.1" width="1366px" height="768px" style="shape-rendering:geometricPrecision; text-rendering:geometricPrecision; image-rendering:optimizeQuality; fill-rule:evenodd; clip-rule:evenodd" xmlns:xlink="http://www.w3.org/1999/xlink">
<g><path style="opacity:1" fill="#f4f4ee" d="M -0.5,-0.5 C 454.833,-0.5 910.167,-0.5 1365.5,-0.5C 1365.5,51.1667 1365.5,102.833 1365.5,154.5C 1341.35,150.623 1317.01,149.456 1292.5,151C 1271.09,154.282 1249.76,157.948 1228.5,162C 1200.48,162.91 1172.48,162.576 1144.5,161C 1101.71,150.292 1059.38,137.959 1017.5,124C 982.522,116.854 947.189,113.521 911.5,114C 882.289,120.552 861.456,137.385 849,164.5C 836.45,195.584 830.45,227.917 831,261.5C 830.667,289.167 830.333,316.833 830,344.5C 828.239,378.304 821.239,410.971 809,442.5C 792.529,490.449 769.529,534.782 740,575.5C 709.266,617.291 680.266,660.291 653,704.5C 643.26,724.46 637.094,745.46 634.5,767.5C 422.833,767.5 211.167,767.5 -0.5,767.5C -0.5,511.5 -0.5,255.5 -0.5,-0.5 Z"/></g>
<g><path style="opacity:1" fill="#93c9c3" d="M 1365.5,154.5 C 1365.5,197.833 1365.5,241.167 1365.5,284.5C 1351.23,278.578 1336.57,273.744 1321.5,270C 1278.13,260.725 1234.3,255.225 1190,253.5C 1163.8,252.839 1138.3,256.672 1113.5,265C 1089.4,272.219 1066.4,281.886 1044.5,294C 1004.82,320.349 972.65,353.849 948,394.5C 926.71,439.186 918.71,486.186 924,535.5C 927.952,567.889 935.952,599.222 948,629.5C 965.986,663.13 980.653,698.13 992,734.5C 995.306,745.391 998.139,756.391 1000.5,767.5C 878.5,767.5 756.5,767.5 634.5,767.5C 637.094,745.46 643.26,724.46 653,704.5C 680.266,660.291 709.266,617.291 740,575.5C 769.529,534.782 792.529,490.449 809,442.5C 821.239,410.971 828.239,378.304 830,344.5C 830.333,316.833 830.667,289.167 831,261.5C 830.45,227.917 836.45,195.584 849,164.5C 861.456,137.385 882.289,120.552 911.5,114C 947.189,113.521 982.522,116.854 1017.5,124C 1059.38,137.959 1101.71,150.292 1144.5,161C 1172.48,162.576 1200.48,162.91 1228.5,162C 1249.76,157.948 1271.09,154.282 1292.5,151C 1317.01,149.456 1341.35,150.623 1365.5,154.5 Z"/></g>
<g><path style="opacity:1" fill="#59afa9" d="M 1365.5,284.5 C 1365.5,445.5 1365.5,606.5 1365.5,767.5C 1243.83,767.5 1122.17,767.5 1000.5,767.5C 998.139,756.391 995.306,745.391 992,734.5C 980.653,698.13 965.986,663.13 948,629.5C 935.952,599.222 927.952,567.889 924,535.5C 918.71,486.186 926.71,439.186 948,394.5C 972.65,353.849 1004.82,320.349 1044.5,294C 1066.4,281.886 1089.4,272.219 1113.5,265C 1138.3,256.672 1163.8,252.839 1190,253.5C 1234.3,255.225 1278.13,260.725 1321.5,270C 1336.57,273.744 1351.23,278.578 1365.5,284.5 Z"/></g>
</svg>
