<?xml version="1.0" encoding="UTF-8"?>
<!DOCTYPE svg PUBLIC "-//W3C//DTD SVG 1.1//EN" "http://www.w3.org/Graphics/SVG/1.1/DTD/svg11.dtd">
<svg xmlns="http://www.w3.org/2000/svg" version="1.1" width="1366px" height="768px" style="shape-rendering:geometricPrecision; text-rendering:geometricPrecision; image-rendering:optimizeQuality; fill-rule:evenodd; clip-rule:evenodd" xmlns:xlink="http://www.w3.org/1999/xlink">
<g><path style="opacity:1" fill="#f4f4ee" d="M -0.5,-0.5 C 145.5,-0.5 291.5,-0.5 437.5,-0.5C 431.747,24.938 427.247,50.6046 424,76.5C 420.604,129.639 434.604,177.639 466,220.5C 485.04,245.877 506.54,269.043 530.5,290C 585.281,330.24 644.281,363.573 707.5,390C 716.019,393.34 724.685,396.173 733.5,398.5C 740.695,430.884 753.862,460.551 773,487.5C 793.77,516.503 818.27,542.003 846.5,564C 903.156,604.504 964.156,637.504 1029.5,663C 1062.07,673.205 1095.07,681.705 1128.5,688.5C 1128.83,688.5 1129.17,688.5 1129.5,688.5C 1147.86,719.198 1171.2,745.531 1199.5,767.5C 799.5,767.5 399.5,767.5 -0.5,767.5C -0.5,511.5 -0.5,255.5 -0.5,-0.5 Z"/></g>
<g><path style="opacity:1" fill="#93c9c3" d="M 437.5,-0.5 C 592.833,-0.5 748.167,-0.5 903.5,-0.5C 827.581,53.5874 778.748,126.254 757,217.5C 744.842,260.133 736.175,303.466 731,347.5C 730.009,364.598 730.842,381.598 733.5,398.5C 724.685,396.173 716.019,393.34 707.5,390C 644.281,363.573 585.281,330.24 530.5,290C 506.54,269.043 485.04,245.877 466,220.5C 434.604,177.639 420.604,129.639 424,76.5C 427.247,50.6046 431.747,24.938 437.5,-0.5 Z"/></g>
<g><path style="opacity:1" fill="#59afa9" d="M 903.5,-0.5 C 1053.17,-0.5 1202.83,-0.5 1352.5,-0.5C 1356.53,1.73724 1360.87,3.40391 1365.5,4.5C 1365.5,258.833 1365.5,513.167 1365.5,767.5C 1339.83,767.5 1314.17,767.5 1288.5,767.5C 1264.2,746.069 1237.54,727.902 1208.5,713C 1182.78,702.821 1156.45,694.654 1129.5,688.5C 1129.17,688.5 1128.83,688.5 1128.5,688.5C 1102.83,645.162 1074.66,603.496 1044,563.5C 1009,520.822 968.168,484.989 921.5,456C 902.11,445.316 881.777,436.983 860.5,431C 829.013,422.586 797.347,414.919 765.5,408C 754.592,405.442 743.925,402.276 733.5,398.5C 730.842,381.598 730.009,364.598 731,347.5C 736.175,303.466 744.842,260.133 757,217.5C 778.748,126.254 827.581,53.5874 903.5,-0.5 Z"/></g>
<g><path style="opacity:1" fill="#90c7c1" d="M 1352.5,-0.5 C 1356.83,-0.5 1361.17,-0.5 1365.5,-0.5C 1365.5,1.16667 1365.5,2.83333 1365.5,4.5C 1360.87,3.40391 1356.53,1.73724 1352.5,-0.5 Z"/></g>
<g><path style="opacity:1" fill="#8dc6c0" d="M 940.5,22.5 C 941.649,22.7911 942.316,23.6244 942.5,25C 941.815,27.8603 940.148,30.027 937.5,31.5C 936.28,31.1131 935.613,30.2798 935.5,29C 936.283,26.0622 937.95,23.8955 940.5,22.5 Z"/></g>
<g><path style="opacity:1" fill="#93c9c3" d="M 733.5,398.5 C 743.925,402.276 754.592,405.442 765.5,408C 797.347,414.919 829.013,422.586 860.5,431C 881.777,436.983 902.11,445.316 921.5,456C 968.168,484.989 1009,520.822 1044,563.5C 1074.66,603.496 1102.83,645.162 1128.5,688.5C 1095.07,681.705 1062.07,673.205 1029.5,663C 964.156,637.504 903.156,604.504 846.5,564C 818.27,542.003 793.77,516.503 773,487.5C 753.862,460.551 740.695,430.884 733.5,398.5 Z"/></g>
<g><path style="opacity:1" fill="#93c9c3" d="M 1129.5,688.5 C 1156.45,694.654 1182.78,702.821 1208.5,713C 1237.54,727.902 1264.2,746.069 1288.5,767.5C 1258.83,767.5 1229.17,767.5 1199.5,767.5C 1171.2,745.531 1147.86,719.198 1129.5,688.5 Z"/></g>
</svg>
